#!OML:ASF E:\pregnant2\Project 1\Capture day 1\Session 1\pregnant2.ASF
:FULLY-SPECIFIED
:DEGREES
3047
root 13.513 16.8287 33.8352 -158.106 47.0703 530.288
lowerback -14.4697 -3.26294 -2.04395
upperback -13.8105 -2.4726 0.773004
thorax -6.5326 -0.311816 1.66621
lowerneck -11.5673 -1.75846 -0.330502
upperneck 45.7697 6.44466 -7.75546
head 20.4118 3.12418 -2.01823
rclavicle -5.76476e-014 -5.56597e-014
rhumerus -56.0212 6.34417 -76.0667
rradius 43.8572
rwrist 8.78198
rhand -9.27021 -12.0659
rfingers 7.12502
rthumb 196.686 -221.369
lclavicle -5.76476e-014 -5.56597e-014
lhumerus -61.4817 -10.8719 86.9223
lradius 69.9686
lwrist -11.6683
lhand -1.30023 24.5043
lfingers 7.12502
lthumb 204.344 -127.022
rfemur -60.3294 16.0965 -4.83227
rtibia 29.8962
rfoot -16.9331 -25.2599
rtoes 0.375397
lfemur -32.9326 -10.8788 -29.3444
ltibia 20.9853
lfoot -13.1109 9.9057
ltoes -7.24371
3048
root 13.5812 16.8264 33.7925 -158.164 46.8235 530.314
lowerback -14.4542 -3.3266 -2.09211
upperback -13.8093 -2.54893 0.862896
thorax -6.53002 -0.341067 1.78201
lowerneck -11.4872 -1.75701 -0.424629
upperneck 45.7801 6.50441 -7.75996
head 20.3999 3.14015 -1.98938
rclavicle -1.59326e-013 -5.24792e-014
rhumerus -55.9661 6.59758 -75.9501
rradius 43.8146
rwrist 8.62074
rhand -9.33543 -12.1387
rfingers 7.12502
rthumb 196.624 -221.447
lclavicle -1.59326e-013 -5.24792e-014
lhumerus -61.5148 -10.575 86.9483
lradius 69.7042
lwrist -11.7514
lhand -1.36934 24.5829
lfingers 7.12502
lthumb 204.278 -126.934
rfemur -60.1733 16.5929 -5.33509
rtibia 29.6279
rfoot -17.3792 -25.4779
rtoes 0.0979165
lfemur -32.4359 -11.0025 -29.2668
ltibia 20.7799
lfoot -13.2708 9.91354
ltoes -7.4716
3049
root 13.6519 16.8214 33.7516 -158.184 46.6171 530.381
lowerback -14.4411 -3.38759 -2.16636
upperback -13.8149 -2.61737 0.979114
thorax -6.5315 -0.362152 1.94099
lowerneck -11.3962 -1.75016 -0.532792
upperneck 45.781 6.57561 -7.76592
head 20.3788 3.15822 -1.9562
rclavicle 1.68967e-014 6.36111e-015
rhumerus -55.9083 6.87212 -75.8231
rradius 43.7629
rwrist 8.45855
rhand -9.3911 -12.1997
rfingers 7.12502
rthumb 196.57 -221.512
lclavicle 1.68967e-014 6.36111e-015
lhumerus -61.5454 -10.2423 86.9794
lradius 69.4261
lwrist -11.8195
lhand -1.46359 24.6838
lfingers 7.12502
lthumb 204.188 -126.821
rfemur -59.9599 16.9129 -5.51152
rtibia 29.4742
rfoot -17.5556 -25.3979
rtoes -0.27374
lfemur -32.0294 -11.0652 -29.1679
ltibia 20.742
lfoot -13.5216 9.94376
ltoes -7.70149
3050
root 13.7239 16.8135 33.7134 -158.148 46.4116 530.468
lowerback -14.4409 -3.46104 -2.26456
upperback -13.8406 -2.6948 1.11711
thorax -6.54598 -0.382152 2.13537
lowerneck -11.3032 -1.73971 -0.644468
upperneck 45.78 6.65793 -7.78009
head 20.3574 3.17939 -1.92433
rclavicle -2.54444e-014 3.81667e-014
rhumerus -55.8503 7.16678 -75.6944
rradius 43.7027
rwrist 8.29369
rhand -9.44606 -12.2598
rfingers 7.12502
rthumb 196.517 -221.577
lclavicle -2.54444e-014 3.81667e-014
lhumerus -61.5693 -9.88174 87.0117
lradius 69.1249
lwrist -11.8581
lhand -1.57634 24.788
lfingers 7.12502
lthumb 204.08 -126.703
rfemur -59.7097 17.032 -5.39759
rtibia 29.4279
rfoot -17.4815 -25.0587
rtoes -0.672183
lfemur -31.7572 -11.0728 -29.0535
ltibia 20.8773
lfoot -13.8601 9.95857
ltoes -7.96463
3051
root 13.7973 16.803 33.6786 -158.045 46.2072 530.574
lowerback -14.4677 -3.53149 -2.37489
upperback -13.8835 -2.76152 1.24795
thorax -6.5656 -0.393404 2.32914
lowerneck -11.226 -1.73901 -0.730527
upperneck 45.787 6.71492 -7.79102
head 20.3443 3.19503 -1.90085
rclavicle -7.05686e-015 -4.13472e-014
rhumerus -55.7983 7.41609 -75.5755
rradius 43.6349
rwrist 8.13393
rhand -9.50588 -12.331
rfingers 7.12502
rthumb 196.459 -221.653
lclavicle -7.05686e-015 -4.13472e-014
lhumerus -61.5666 -9.55951 87.0363
lradius 68.7934
lwrist -11.8595
lhand -1.71324 24.8968
lfingers 7.12502
lthumb 203.948 -126.577
rfemur -59.4464 16.9722 -5.02971
rtibia 29.4861
rfoot -17.2062 -24.4964
rtoes -1.06317
lfemur -31.6257 -11.0179 -28.9214
ltibia 21.1673
lfoot -14.2775 9.94574
ltoes -8.25736
3052
root 13.871 16.7903 33.6452 -157.889 45.9773 530.693
lowerback -14.5298 -3.53548 -2.36184
upperback -13.938 -2.74774 1.25268
thorax -6.59546 -0.377962 2.32618
lowerneck -11.1593 -1.78593 -0.746658
upperneck 45.828 6.64087 -7.73005
head 20.3409 3.18025 -1.88022
rclavicle -1.05256e-013 -9.54166e-015
rhumerus -55.8086 7.40845 -75.5012
rradius 43.5567
rwrist 8.01997
rhand -9.57949 -12.4137
rfingers 7.12502
rthumb 196.389 -221.741
lclavicle -1.05256e-013 -9.54166e-015
lhumerus -61.5248 -9.48832 87.0127
lradius 68.4315
lwrist -11.7707
lhand -1.79463 24.9824
lfingers 7.12502
lthumb 203.87 -126.481
rfemur -59.1608 16.7519 -4.45439
rtibia 29.6371
rfoot -16.7828 -23.8058
rtoes -1.43555
lfemur -31.5962 -10.9517 -28.7654
ltibia 21.557
lfoot -14.7345 9.92137
ltoes -8.59382
3053
root 13.9451 16.7767 33.6135 -157.694 45.7148 530.809
lowerback -14.6099 -3.55804 -2.36199
upperback -14.0044 -2.75328 1.26456
thorax -6.62734 -0.368989 2.33587
lowerneck -11.1108 -1.83245 -0.750261
upperneck 45.8696 6.56321 -7.67232
head 20.3437 3.16468 -1.86438
rclavicle 1.80894e-014 3.10104e-014
rhumerus -55.8085 7.40801 -75.4413
rradius 43.4668
rwrist 7.90432
rhand -9.6656 -12.5183
rfingers 7.12502
rthumb 196.306 -221.853
lclavicle 1.80894e-014 3.10104e-014
lhumerus -61.4536 -9.40554 86.9818
lradius 68.0345
lwrist -11.6354
lhand -1.88429 25.0629
lfingers 7.12502
lthumb 203.784 -126.389
rfemur -58.8853 16.4187 -3.76282
rtibia 29.8573
rfoot -16.2484 -23.0361
rtoes -1.62129
lfemur -31.6331 -10.8856 -28.5908
ltibia 21.9805
lfoot -15.1968 9.86682
ltoes -8.95005
3054
root 14.0204 16.7637 33.5792 -157.526 45.4289 530.934
lowerback -14.6866 -3.58055 -2.33667
upperback -14.0549 -2.76432 1.27201
thorax -6.64399 -0.367038 2.32614
lowerneck -11.0726 -1.878 -0.744408
upperneck 45.9075 6.47945 -7.61237
head 20.3463 3.14757 -1.85037
rclavicle 5.02925e-014 2.94201e-014
rhumerus -55.797 7.40779 -75.3915
rradius 43.3585
rwrist 7.80093
rhand -9.76175 -12.6274
rfingers 7.12502
rthumb 196.213 -221.969
lclavicle 5.02925e-014 2.94201e-014
lhumerus -61.3542 -9.31098 86.9417
lradius 67.5999
lwrist -11.4564
lhand -1.9679 25.1214
lfingers 7.12502
lthumb 203.704 -126.32
rfemur -58.5841 16.0902 -3.05914
rtibia 30.1118
rfoot -15.6712 -22.3053
rtoes -1.63613
lfemur -31.6123 -10.8801 -28.3945
ltibia 22.3691
lfoot -15.6221 9.85302
ltoes -9.32715
3055
root 14.0967 16.7534 33.543 -157.379 45.1191 531.068
lowerback -14.7582 -3.60396 -2.28045
upperback -14.0975 -2.78127 1.27507
thorax -6.65576 -0.371864 2.29409
lowerneck -11.0249 -1.92205 -0.741059
upperneck 45.9396 6.39302 -7.54555
head 20.3411 3.12983 -1.83278
rclavicle -1.308e-013 -7.23576e-014
rhumerus -55.7873 7.4129 -75.3568
rradius 43.2333
rwrist 7.70754
rhand -9.86515 -12.7444
rfingers 7.12502
rthumb 196.114 -222.094
lclavicle -1.308e-013 -7.23576e-014
lhumerus -61.2376 -9.20119 86.8908
lradius 67.1293
lwrist -11.2325
lhand -2.04018 25.1693
lfingers 7.12502
lthumb 203.635 -126.263
rfemur -58.2975 15.8315 -2.43777
rtibia 30.362
rfoot -15.1 -21.7206
rtoes -1.65659
lfemur -31.521 -10.9273 -28.1723
ltibia 22.6765
lfoot -15.9952 9.85312
ltoes -9.6605
3056
root 14.1742 16.7472 33.5052 -157.24 44.7974 531.228
lowerback -14.8224 -3.62334 -2.1967
upperback -14.1338 -2.79699 1.27966
thorax -6.66556 -0.379136 2.24863
lowerneck -10.9761 -1.96768 -0.731558
upperneck 45.9777 6.30798 -7.48465
head 20.3408 3.11374 -1.81906
rclavicle 9.54166e-015 3.18055e-015
rhumerus -55.7839 7.42797 -75.3377
rradius 43.0888
rwrist 7.62087
rhand -9.99229 -12.861
rfingers 7.12502
rthumb 195.991 -222.221
lclavicle 9.54166e-015 3.18055e-015
lhumerus -61.1045 -9.07444 86.8325
lradius 66.6192
lwrist -10.9684
lhand -2.11112 25.2001
lfingers 7.12502
lthumb 203.567 -126.224
rfemur -58.0473 15.7234 -1.97056
rtibia 30.5686
rfoot -14.6072 -21.3701
rtoes -1.96676
lfemur -31.3528 -11.0019 -27.9191
ltibia 22.8894
lfoot -16.311 9.858
ltoes -9.94719
